<svg width="400" height="128" viewBox="0 0 171 73" fill="none" xmlns="http://www.w3.org/2000/svg">
<ellipse cx="85.5" cy="36.5" rx="85.5" ry="36.5" fill="black"/>
<path d="M27.4205 31C27.4716 30.4375 27.3352 29.9972 27.0114 29.679C26.6875 29.3551 26.142 29.1932 25.375 29.1932C24.8864 29.1932 24.4773 29.25 24.1477 29.3636C23.8239 29.4773 23.571 29.6335 23.3892 29.8324C23.2131 30.0312 23.1023 30.2614 23.0568 30.5227C23.0057 30.7273 23.0085 30.9148 23.0653 31.0852C23.1278 31.25 23.2443 31.4006 23.4148 31.5369C23.5909 31.6733 23.821 31.7955 24.1051 31.9034C24.3949 32.0114 24.7386 32.108 25.1364 32.1932L26.5 32.5C27.4318 32.7045 28.2131 32.9744 28.8438 33.3097C29.4801 33.6392 29.9801 34.0312 30.3438 34.4858C30.7074 34.9403 30.946 35.4489 31.0597 36.0114C31.179 36.5739 31.1818 37.1875 31.0682 37.8523C30.875 39 30.429 39.9716 29.7301 40.767C29.0313 41.5625 28.1193 42.1676 26.9943 42.5824C25.8693 42.9972 24.5682 43.2045 23.0909 43.2045C21.5795 43.2045 20.2955 42.9801 19.2386 42.5312C18.1875 42.0767 17.4261 41.3835 16.9545 40.4517C16.4886 39.5142 16.375 38.3182 16.6136 36.8636H21.1136C21.0455 37.3977 21.1023 37.8466 21.2841 38.2102C21.4659 38.5739 21.7585 38.8494 22.1619 39.0369C22.5653 39.2244 23.0682 39.3182 23.6705 39.3182C24.1818 39.3182 24.6193 39.2557 24.983 39.1307C25.3466 39.0057 25.6335 38.8324 25.8438 38.6108C26.054 38.3892 26.1818 38.1364 26.2273 37.8523C26.2727 37.5909 26.2273 37.358 26.0909 37.1534C25.9545 36.9489 25.7074 36.7642 25.3494 36.5994C24.9915 36.4347 24.5 36.2841 23.875 36.1477L22.2045 35.7727C20.7216 35.4318 19.6023 34.8693 18.8466 34.0852C18.0909 33.3011 17.8239 32.2273 18.0455 30.8636C18.2273 29.75 18.6847 28.7784 19.4176 27.9489C20.1563 27.1136 21.0938 26.4659 22.2301 26.0057C23.3722 25.5398 24.6364 25.3068 26.0227 25.3068C27.4318 25.3068 28.6108 25.5426 29.5597 26.0142C30.5142 26.4858 31.1989 27.1477 31.6136 28C32.0341 28.8523 32.1477 29.8523 31.9545 31H27.4205ZM38.3253 43.2386C36.9276 43.2386 35.7685 42.9716 34.848 42.4375C33.9276 41.8977 33.2798 41.125 32.9048 40.1193C32.5298 39.108 32.4616 37.8977 32.7003 36.4886C32.9276 35.1364 33.3963 33.9545 34.1065 32.9432C34.8224 31.9318 35.723 31.1449 36.8082 30.5824C37.8991 30.0199 39.1207 29.7386 40.473 29.7386C41.4616 29.7386 42.3281 29.892 43.0724 30.1989C43.8224 30.5057 44.4332 30.9517 44.9048 31.5369C45.3764 32.1222 45.6946 32.8295 45.8594 33.6591C46.0298 34.483 46.0298 35.4148 45.8594 36.4545L45.6889 37.5455H33.9957L34.4048 34.9545H41.7685C41.8253 34.5795 41.7884 34.25 41.6577 33.9659C41.5327 33.6761 41.331 33.4517 41.0526 33.2926C40.7798 33.1278 40.4503 33.0455 40.0639 33.0455C39.6776 33.0455 39.3139 33.1278 38.973 33.2926C38.6378 33.4574 38.3509 33.6875 38.1122 33.983C37.8793 34.2784 37.723 34.625 37.6435 35.0227L37.1321 37.75C37.0639 38.1705 37.0895 38.5455 37.2088 38.875C37.3281 39.2045 37.5355 39.4631 37.831 39.6506C38.1264 39.8381 38.5071 39.9318 38.973 39.9318C39.2912 39.9318 39.5923 39.8892 39.8764 39.804C40.1662 39.7131 40.4219 39.5824 40.6435 39.4119C40.8707 39.2358 41.0526 39.0227 41.1889 38.7727H45.4844C45.1776 39.6818 44.6918 40.4716 44.027 41.142C43.3679 41.8068 42.5554 42.3239 41.5895 42.6932C40.6293 43.0568 39.5412 43.2386 38.3253 43.2386ZM50.3018 43.2045C49.4723 43.2045 48.7592 43.0682 48.1626 42.7955C47.5717 42.517 47.1399 42.0966 46.8672 41.5341C46.6001 40.9659 46.5405 40.25 46.6882 39.3864C46.8075 38.6705 47.032 38.0597 47.3615 37.554C47.6911 37.0483 48.1001 36.6335 48.5888 36.3097C49.0774 35.9858 49.6257 35.7386 50.2337 35.5682C50.8473 35.392 51.495 35.2784 52.1768 35.2273C52.9155 35.1705 53.5149 35.0994 53.9751 35.0142C54.4354 34.929 54.7791 34.8125 55.0064 34.6648C55.2337 34.517 55.37 34.3182 55.4155 34.0682V34.0341C55.4666 33.6932 55.3757 33.4318 55.1428 33.25C54.9155 33.0682 54.5973 32.9773 54.1882 32.9773C53.745 32.9773 53.3615 33.0739 53.0376 33.267C52.7195 33.4602 52.5007 33.7614 52.3814 34.1705H48.0518C48.2337 33.375 48.6058 32.642 49.1683 31.9716C49.7365 31.2955 50.4893 30.7557 51.4268 30.3523C52.37 29.9432 53.495 29.7386 54.8018 29.7386C55.7337 29.7386 56.5518 29.8494 57.2564 30.071C57.9609 30.2869 58.5433 30.5909 59.0036 30.983C59.4695 31.3693 59.7962 31.8239 59.9837 32.3466C60.1768 32.8636 60.2223 33.4261 60.12 34.0341L58.62 43H54.2223L54.5291 41.1591H54.4268C54.0859 41.6477 53.7024 42.0426 53.2763 42.3438C52.8558 42.6449 52.3956 42.8636 51.8956 43C51.4013 43.1364 50.87 43.2045 50.3018 43.2045ZM52.3473 40.2386C52.6996 40.2386 53.0462 40.1648 53.3871 40.017C53.728 39.8693 54.0206 39.6562 54.2649 39.3778C54.5092 39.0994 54.6655 38.7614 54.7337 38.3636L54.9041 37.2727C54.7791 37.3239 54.6399 37.3722 54.4865 37.4176C54.3388 37.4574 54.1825 37.4972 54.0178 37.5369C53.8587 37.5767 53.6882 37.6136 53.5064 37.6477C53.3303 37.6818 53.1484 37.7159 52.9609 37.75C52.5859 37.8068 52.2706 37.9006 52.0149 38.0312C51.7592 38.1562 51.5604 38.3125 51.4183 38.5C51.2763 38.6818 51.1882 38.8864 51.1541 39.1136C51.103 39.4716 51.1854 39.75 51.4013 39.9489C51.6229 40.142 51.9382 40.2386 52.3473 40.2386ZM60.8679 43L63.0497 29.9091H67.6179L67.2088 32.3977H67.3452C67.7372 31.4773 68.2287 30.804 68.8196 30.3778C69.4105 29.9517 70.0554 29.7386 70.7543 29.7386C70.9588 29.7386 71.1548 29.7557 71.3423 29.7898C71.5355 29.8182 71.7259 29.858 71.9134 29.9091L71.2315 33.9318C71.0099 33.8466 70.7344 33.7869 70.4048 33.7528C70.0753 33.7131 69.7827 33.6932 69.527 33.6932C69.0724 33.6932 68.6463 33.7983 68.2486 34.0085C67.8565 34.2131 67.5213 34.5028 67.2429 34.8778C66.9702 35.2472 66.7884 35.6818 66.6974 36.1818L65.5724 43H60.8679ZM76.7969 43.2386C75.3764 43.2386 74.206 42.9574 73.2855 42.3949C72.3651 41.8267 71.7202 41.0369 71.3509 40.0256C70.9815 39.0085 70.9105 37.8295 71.1378 36.4886C71.3537 35.1477 71.8139 33.9716 72.5185 32.9602C73.2287 31.9432 74.1378 31.1534 75.2457 30.5909C76.3594 30.0227 77.6264 29.7386 79.0469 29.7386C80.331 29.7386 81.402 29.9716 82.2599 30.4375C83.1236 30.8977 83.7401 31.5511 84.1094 32.3977C84.4844 33.2386 84.581 34.2273 84.3991 35.3636H80.0355C80.0866 34.6818 79.9759 34.1591 79.7031 33.7955C79.4361 33.4318 79.0469 33.25 78.5355 33.25C78.1151 33.25 77.7287 33.3693 77.3764 33.608C77.0298 33.8409 76.7315 34.196 76.4815 34.6733C76.2372 35.1449 76.0582 35.7386 75.9446 36.4545C75.831 37.1705 75.8168 37.767 75.902 38.2443C75.9929 38.7159 76.169 39.071 76.4304 39.3097C76.6974 39.5426 77.0355 39.6591 77.4446 39.6591C77.7969 39.6591 78.1207 39.5795 78.4162 39.4205C78.7173 39.2557 78.9759 39.017 79.1918 38.7045C79.4134 38.3864 79.581 38 79.6946 37.5455H84.0582C83.8423 38.7045 83.4077 39.7102 82.7543 40.5625C82.1009 41.4148 81.2685 42.0739 80.2571 42.5398C79.2457 43.0057 78.0923 43.2386 76.7969 43.2386ZM91.0447 35.6364L89.8175 43H85.1129L88.0107 25.5455H92.5447L91.4197 32.3977H91.5561C91.9822 31.5625 92.5788 30.9119 93.3459 30.446C94.1129 29.9744 94.9822 29.7386 95.9538 29.7386C96.8743 29.7386 97.6413 29.9489 98.255 30.3693C98.8686 30.7898 99.3033 31.3693 99.5589 32.108C99.8146 32.8466 99.8629 33.6932 99.7038 34.6477L98.3061 43H93.6016L94.8288 35.6364C94.9311 34.9886 94.8487 34.4801 94.5817 34.1108C94.3203 33.7415 93.8913 33.5568 93.2947 33.5568C92.9084 33.5568 92.5561 33.642 92.2379 33.8125C91.9254 33.9773 91.6641 34.2159 91.4538 34.5284C91.2493 34.8352 91.1129 35.2045 91.0447 35.6364ZM108.197 25.5455L105.299 43H100.594L103.492 25.5455H108.197ZM107.696 43L109.878 29.9091H114.582L112.401 43H107.696ZM112.435 28.5455C111.798 28.5455 111.284 28.3352 110.892 27.9148C110.5 27.4886 110.355 26.983 110.457 26.3977C110.56 25.8011 110.872 25.2955 111.395 24.8807C111.918 24.4602 112.497 24.25 113.134 24.25C113.776 24.25 114.287 24.4602 114.668 24.8807C115.048 25.2955 115.19 25.8011 115.094 26.3977C115.003 26.983 114.696 27.4886 114.173 27.9148C113.656 28.3352 113.077 28.5455 112.435 28.5455ZM120.286 48.1818C118.968 48.1818 117.871 47.9943 116.996 47.6193C116.127 47.25 115.485 46.7386 115.07 46.0852C114.661 45.4375 114.491 44.6932 114.559 43.8523H119.093C119.104 44.1364 119.187 44.3636 119.34 44.5341C119.494 44.7045 119.707 44.8267 119.979 44.9006C120.252 44.9744 120.57 45.0114 120.934 45.0114C121.548 45.0114 122.079 44.8608 122.528 44.5597C122.977 44.2642 123.252 43.733 123.354 42.9659L123.729 40.75H123.593C123.354 41.1932 123.033 41.571 122.63 41.8835C122.227 42.1903 121.763 42.4261 121.241 42.5909C120.718 42.75 120.161 42.8295 119.57 42.8295C118.638 42.8295 117.817 42.6136 117.107 42.1818C116.403 41.75 115.891 41.0653 115.573 40.1278C115.261 39.1903 115.229 37.9659 115.479 36.4545C115.741 34.875 116.201 33.5909 116.86 32.6023C117.519 31.6136 118.278 30.8892 119.136 30.429C119.994 29.9688 120.854 29.7386 121.718 29.7386C122.366 29.7386 122.914 29.8523 123.363 30.0795C123.812 30.3011 124.17 30.5994 124.437 30.9744C124.704 31.3437 124.888 31.75 124.991 32.1932H125.093L125.468 29.9091H130.173L127.991 42.9659C127.82 44.0795 127.386 45.0227 126.687 45.7955C125.994 46.5739 125.096 47.1648 123.994 47.5682C122.897 47.9773 121.661 48.1818 120.286 48.1818ZM121.854 39.4886C122.286 39.4886 122.678 39.3693 123.031 39.1307C123.383 38.8864 123.681 38.5398 123.925 38.0909C124.17 37.6364 124.343 37.0909 124.445 36.4545C124.548 35.8068 124.553 35.2528 124.462 34.7926C124.371 34.3267 124.192 33.9716 123.925 33.7273C123.658 33.4773 123.309 33.3523 122.877 33.3523C122.445 33.3523 122.056 33.4773 121.71 33.7273C121.363 33.9716 121.07 34.3267 120.832 34.7926C120.593 35.2528 120.423 35.8068 120.32 36.4545C120.218 37.1023 120.21 37.6534 120.295 38.108C120.38 38.5568 120.553 38.9006 120.815 39.1392C121.076 39.3722 121.423 39.4886 121.854 39.4886ZM136.349 35.6364L135.122 43H130.418L133.315 25.5455H137.849L136.724 32.3977H136.861C137.287 31.5625 137.884 30.9119 138.651 30.446C139.418 29.9744 140.287 29.7386 141.259 29.7386C142.179 29.7386 142.946 29.9489 143.56 30.3693C144.173 30.7898 144.608 31.3693 144.864 32.108C145.119 32.8466 145.168 33.6932 145.009 34.6477L143.611 43H138.906L140.134 35.6364C140.236 34.9886 140.153 34.4801 139.886 34.1108C139.625 33.7415 139.196 33.5568 138.599 33.5568C138.213 33.5568 137.861 33.642 137.543 33.8125C137.23 33.9773 136.969 34.2159 136.759 34.5284C136.554 34.8352 136.418 35.2045 136.349 35.6364ZM155.888 29.9091L155.308 33.3182H146.683L147.263 29.9091H155.888ZM149.445 26.7727H154.149L152.155 38.7898C152.126 38.9716 152.132 39.125 152.172 39.25C152.212 39.3693 152.291 39.4602 152.411 39.5227C152.536 39.5795 152.7 39.608 152.905 39.608C153.041 39.608 153.209 39.5909 153.408 39.5568C153.607 39.517 153.757 39.4886 153.859 39.4716L153.996 42.7784C153.757 42.8466 153.436 42.9233 153.033 43.0085C152.635 43.0994 152.172 43.1591 151.643 43.1875C150.541 43.2386 149.643 43.1222 148.95 42.8381C148.263 42.554 147.786 42.1108 147.518 41.5085C147.257 40.9006 147.212 40.142 147.382 39.233L149.445 26.7727Z" fill="white"/>
</svg>
